<svg width="48" height="48" viewBox="0 0 48 48" fill="none" xmlns="http://www.w3.org/2000/svg">
<rect width="48" height="48" rx="16" fill="#1769FF"/>
<path d="M17.0691 13.5C18.0872 13.5 19.0165 13.589 19.857 13.7651C20.6975 13.9412 21.4153 14.2303 22.014 14.6326C22.6128 15.0348 23.0774 15.5687 23.4079 16.236C23.7385 16.9033 23.9028 17.7263 23.9028 18.7069C23.9028 19.7653 23.6573 20.6477 23.1681 21.3539C22.6789 22.0601 21.9536 22.6385 20.9959 23.0889C22.3143 23.4615 23.2984 24.114 23.9481 25.0445C24.5979 25.9751 24.9227 27.0984 24.9227 28.4126C24.9227 29.471 24.7131 30.3886 24.2938 31.1634C23.8745 31.9382 23.3097 32.5703 22.5995 33.0597C21.8893 33.5509 21.0809 33.9124 20.1724 34.1478C19.2583 34.3832 18.3158 34.5018 17.3714 34.5H7V13.5H17.0691ZM16.4704 21.999C17.309 21.999 17.9984 21.8025 18.5386 21.4114C19.0788 21.0184 19.3489 20.3826 19.347 19.5003C19.347 19.0109 19.2564 18.6087 19.0769 18.2954C18.8975 17.9821 18.6576 17.7356 18.3573 17.5595C18.057 17.3834 17.7132 17.2611 17.3241 17.1925C16.9237 17.1239 16.5176 17.0887 16.1096 17.0905H11.7069V22.0027L16.4704 21.999ZM16.7405 30.9095C17.1844 30.9113 17.6263 30.8668 18.0589 30.7779C18.4782 30.6889 18.8484 30.5424 19.1676 30.3367C19.4868 30.1309 19.7418 29.851 19.9326 29.4988C20.1214 29.1466 20.2178 28.6944 20.2178 28.1457C20.2178 27.0687 19.908 26.2976 19.2885 25.8379C18.669 25.3763 17.8492 25.1465 16.8312 25.1465H11.7069V30.9113L16.7405 30.9095ZM30.8422 30.4683C31.4806 31.0763 32.4005 31.3803 33.5999 31.3803C34.4593 31.3803 35.1978 31.169 35.8173 30.7482C36.4368 30.3274 36.8165 29.8807 36.9562 29.4099H40.7017C40.103 31.2339 39.1831 32.537 37.9441 33.3211C36.705 34.1052 35.2072 34.4981 33.4488 34.4981C32.2305 34.4981 31.1312 34.3072 30.1528 33.9253C29.1744 33.5435 28.3452 32.9985 27.6653 32.2923C26.9853 31.586 26.4602 30.7445 26.0919 29.7639C25.7236 28.7833 25.5385 27.7045 25.5385 26.5293C25.5385 25.393 25.7274 24.3346 26.107 23.354C26.4867 22.3734 27.0269 21.5263 27.7257 20.8108C28.4246 20.0953 29.2594 19.5318 30.2284 19.1203C31.1973 18.7088 32.272 18.503 33.4506 18.503C34.769 18.503 35.9174 18.7532 36.8977 19.2537C37.8761 19.7542 38.6807 20.4252 39.3097 21.2686C39.9386 22.112 40.3938 23.0722 40.6734 24.1511C40.9529 25.2299 41.053 26.3569 40.9737 27.534H29.7958C29.8544 28.8816 30.2038 29.8622 30.8422 30.4683ZM35.653 22.4698C35.143 21.9211 34.3686 21.6468 33.3298 21.6468C32.6498 21.6468 32.085 21.7599 31.6374 21.9841C31.1879 22.2103 30.829 22.4883 30.5589 22.822C30.2888 23.1557 30.0999 23.5078 29.9904 23.8804C29.8808 24.253 29.8147 24.5867 29.7958 24.8795H36.7182C36.5161 23.823 36.1611 23.0185 35.653 22.4698ZM29.0668 14.5658H37.7155V16.92H29.0668V14.5658Z" fill="white"/>
</svg>
