<svg width="48" height="48" viewBox="0 0 48 48" fill="none" xmlns="http://www.w3.org/2000/svg">
<rect x="0.5" y="0.5" width="47" height="47" rx="15.5" fill="#F0F3F6" stroke="#F0F3F6"/>
<path d="M12.0312 34.7025H16.4781V23.9028L10.1253 19.1382V32.7967C10.1253 33.8512 10.9798 34.7025 12.0312 34.7025Z" fill="#4285F4"/>
<path d="M31.7248 34.7025H36.1717C37.2263 34.7025 38.0776 33.848 38.0776 32.7967V19.1382L31.7248 23.9028" fill="#34A853"/>
<path d="M31.7248 15.6444V23.903L38.0776 19.1384V16.5973C38.0776 14.2404 35.3872 12.8968 33.5036 14.3103" fill="#FBBC04"/>
<path d="M16.4781 23.9029V15.6443L24.1015 21.3618L31.7248 15.6443V23.9029L24.1015 29.6204" fill="#EA4335"/>
<path d="M10.1253 16.5973V19.1384L16.4781 23.903V15.6444L14.6993 14.3103C12.8126 12.8968 10.1253 14.2404 10.1253 16.5973Z" fill="#C5221F"/>
</svg>
