<svg width="48" height="48" viewBox="0 0 48 48" fill="none" xmlns="http://www.w3.org/2000/svg">
<rect width="48" height="48" rx="16" fill="#34AADF"/>
<path d="M13.3538 23.1498C13.3538 23.1498 23.1192 19.0368 26.5061 17.5885C27.8044 17.0092 32.2073 15.1554 32.2073 15.1554C32.2073 15.1554 34.2394 14.3444 34.0701 16.314C34.0136 17.1251 33.562 19.9636 33.1105 23.034C32.4331 27.3788 31.6992 32.1291 31.6992 32.1291C31.6992 32.1291 31.5864 33.4616 30.6268 33.6933C29.6672 33.925 28.0866 32.8823 27.8044 32.6505C27.5785 32.4767 23.5708 29.8698 22.1032 28.5953C21.708 28.2478 21.2565 27.5526 22.1596 26.7416C24.1917 24.8299 26.6189 22.4547 28.0866 20.9485C28.764 20.2533 29.4413 18.6313 26.6189 20.6009C22.6112 23.4395 18.6599 26.1043 18.6599 26.1043C18.6599 26.1043 17.7567 26.6836 16.0633 26.1622C14.3698 25.6409 12.3941 24.9457 12.3941 24.9457C12.3941 24.9457 11.0394 24.0768 13.3538 23.1498Z" fill="#F8F9FA"/>
</svg>
